<?xml version="1.0" encoding="utf-8"?>
<!-- Generator: Adobe Illustrator 18.1.1, SVG Export Plug-In . SVG Version: 6.00 Build 0)  -->
<svg version="1.1" baseProfile="tiny" id="Layer_1" xmlns="http://www.w3.org/2000/svg" xmlns:xlink="http://www.w3.org/1999/xlink"
	 x="0px" y="0px" viewBox="0 0 56 56" xml:space="preserve">
<g>
	<path fill-rule="evenodd" d="M28,0C12.5,0,0,12.5,0,28c0,15.5,12.5,28,28,28c15.5,0,28-12.5,28-28C56,12.5,43.5,0,28,0z M26.1,52.2
		c-3.3-0.3-6.5-1.2-9.3-2.7V6.5c2.8-1.5,6-2.4,9.3-2.7V52.2z M29.9,3.8c3.3,0.3,6.5,1.2,9.3,2.7v43.1c-2.8,1.5-6,2.4-9.3,2.7V3.8z
		 M3.7,28c0-7.8,3.7-14.7,9.3-19.1v38.2C7.4,42.7,3.7,35.8,3.7,28z M42.9,47.1V8.9c5.7,4.4,9.3,11.4,9.3,19.1
		C52.3,35.8,48.6,42.7,42.9,47.1z"/>
</g>
</svg>
