<?xml version="1.0" encoding="utf-8"?>
<!-- Generator: Adobe Illustrator 18.1.1, SVG Export Plug-In . SVG Version: 6.00 Build 0)  -->
<svg version="1.1" baseProfile="tiny" id="Layer_1" xmlns="http://www.w3.org/2000/svg" xmlns:xlink="http://www.w3.org/1999/xlink"
	 x="0px" y="0px" viewBox="0 0 66.5 66.5" xml:space="preserve">
<g>
	<path d="M16.4,33.1c0-10.3,7.8-17.3,17.8-17.3c7.4,0,11.6,4,14,8.2L42,27c-1.4-2.7-4.4-4.9-7.9-4.9c-6.1,0-10.5,4.7-10.5,11
		s4.4,11,10.5,11c3.5,0,6.5-2.1,7.9-4.9l6.1,3c-2.4,4.2-6.6,8.2-14,8.2C24.1,50.3,16.4,43.3,16.4,33.1z"/>
</g>
<path d="M33.2,0C14.9,0,0,14.9,0,33.2c0,18.4,14.9,33.2,33.2,33.2c18.4,0,33.2-14.9,33.2-33.2C66.5,14.9,51.6,0,33.2,0z M33.2,61
	C17.9,61,5.5,48.6,5.5,33.2S17.9,5.5,33.2,5.5C48.6,5.5,61,17.9,61,33.2S48.6,61,33.2,61z"/>
</svg>
