<?xml version="1.0" encoding="utf-8"?>
<!-- Generator: Adobe Illustrator 24.1.3, SVG Export Plug-In . SVG Version: 6.00 Build 0)  -->
<svg version="1.1" id="Layer_1" xmlns="http://www.w3.org/2000/svg" xmlns:xlink="http://www.w3.org/1999/xlink" x="0px" y="0px"
	 viewBox="0 0 52 52" style="enable-background:new 0 0 52 52;" xml:space="preserve">
<style type="text/css">
	.st0{fill:#FFFFFF;}
</style>
<g>
	<g>
		<path class="st0" d="M28.74,28.68c-0.52,0.39-1.23,0.59-2.13,0.59c-2.03,0-4.23-1.04-6.61-3.13l-2.94,3.6
			c2.8,2.59,5.96,3.89,9.46,3.89c2.42,0,4.38-0.62,5.86-1.85c1.49-1.23,2.23-2.84,2.23-4.82c0-1.98-0.58-3.49-1.74-4.52
			c-1.16-1.03-2.79-1.81-4.89-2.32c-2.1-0.52-3.44-0.96-4.01-1.34c-0.58-0.38-0.87-0.89-0.87-1.53c0-0.64,0.24-1.16,0.71-1.55
			c0.47-0.39,1.12-0.58,1.95-0.58c2.04,0,4.02,0.73,5.94,2.18l2.5-3.6c-1.1-0.93-2.38-1.64-3.86-2.15
			c-1.48-0.51-2.95-0.76-4.43-0.76c-2.25,0-4.14,0.57-5.64,1.71c-1.51,1.14-2.26,2.76-2.26,4.85c0,2.1,0.6,3.63,1.79,4.61
			c1.19,0.98,3.07,1.77,5.64,2.39c1.62,0.4,2.71,0.8,3.26,1.19c0.55,0.39,0.82,0.92,0.82,1.58C29.52,27.77,29.26,28.29,28.74,28.68z
			 M26.01,0C11.64,0,0,11.64,0,25.99c0,14.35,11.64,25.99,26.01,25.99c14.36,0,26.01-11.64,26.01-25.99C52.02,11.64,40.37,0,26.01,0
			z M26.01,48.11c-12.2,0-22.09-9.9-22.09-22.12c0-12.22,9.89-22.12,22.09-22.12s22.09,9.9,22.09,22.12
			C48.1,38.2,38.21,48.11,26.01,48.11z M29.89,37.74c-1.48,0-2.83,0.51-3.91,1.35c-1.07-0.84-2.42-1.35-3.88-1.35
			c-1.93,0-3.66,0.87-4.82,2.24l2.12,1.23c0.71-0.67,1.66-1.08,2.71-1.08c0.91,0,1.71,0.28,2.38,0.8c0,0.09,0.32,0.2,0.32,0.32h2.39
			c0-0.12,0.32-0.23,0.32-0.32c0.67-0.52,1.48-0.8,2.4-0.8c1.05,0,2.01,0.41,2.73,1.08l2.13-1.23
			C33.58,38.61,31.83,37.74,29.89,37.74z"/>
	</g>
</g>
</svg>
